<svg xmlns="http://www.w3.org/2000/svg" width="1600" height="720" viewBox="0 0 1600 720" role="img" aria-labelledby="title desc">
<title id="title">驿程：逛长安，有人同行</title><desc id="desc">西安旅行规划与陪伴平台。景点发现、按天规划、小队同行，结合秦岭四宝萌宠。右侧为产品使用流程示意。</desc>
<defs>
 <linearGradient id="bg" x1="0" y1="0" x2="1" y2="1"><stop stop-color="#171B23"/><stop offset="1" stop-color="#2D2026"/></linearGradient>
 <radialGradient id="glow"><stop stop-color="#B2372E" stop-opacity=".32"/><stop offset="1" stop-color="#B2372E" stop-opacity="0"/></radialGradient>
 <pattern id="grid" width="48" height="48" patternUnits="userSpaceOnUse"><path d="M48 0H0V48" fill="none" stroke="#EEE0CD" stroke-opacity=".035"/></pattern>
</defs>
<rect x="1" y="1" width="1598" height="718" rx="32" fill="url(#bg)" stroke="#494049" stroke-width="2"/>
<rect x="1" y="1" width="1598" height="718" rx="32" fill="url(#grid)"/>
<ellipse cx="620" cy="460" rx="500" ry="400" fill="url(#glow)"/>
<g font-family="Microsoft YaHei, Noto Sans CJK SC, sans-serif">
 <text x="74" y="107" fill="#F9EFDE" font-size="34" font-weight="700">驿程 YICHENG</text>
 <text x="74" y="145" fill="#BBA99A" font-size="19" letter-spacing="4">西安旅行的规划与陪伴平台</text>
 <text x="74" y="288" fill="#FAF6EF" font-size="83" font-weight="700">逛长安，</text>
 <text x="74" y="398" fill="#E9BC7A" font-size="83" font-weight="700">有人同行。</text>
 <text x="79" y="468" fill="#DDCDBD" font-size="27">把想去的地方，安排成每天的计划。</text>
 <text x="79" y="516" fill="#C2B4A7" font-size="24">与朋友共享游玩进度，让秦岭四宝陪你探索。</text>
 <path d="M79 562H681" stroke="#C29E6A" stroke-opacity=".3"/>
 <text x="79" y="612" fill="#F0D7AE" font-size="26">24 个景点</text><text x="280" y="612" fill="#F0D7AE" font-size="26">4 只萌宠</text><text x="469" y="612" fill="#F0D7AE" font-size="26">106 件服饰</text>
 <text x="79" y="659" fill="#A89B92" font-size="19">景点发现 · 行程规划 · 同行协作</text>
 <rect x="809" y="69" width="719" height="586" rx="24" fill="#151922" stroke="#55454B" stroke-width="1.5"/>
 <text x="856" y="119" fill="#E4C39B" font-size="23" font-weight="700">一段长安旅程</text>
 <text x="1475" y="119" text-anchor="end" fill="#94868A" font-size="17">产品流程示意</text>
 <path d="M810 145H1527" stroke="#3F353D"/>
 <path d="M881 203V378" fill="none" stroke="#AD7657" stroke-width="2" stroke-dasharray="5 9"/>
 <circle cx="881" cy="211" r="20" fill="#61362E"/><text x="881" y="218" text-anchor="middle" fill="#F3D5A9" font-size="19">01</text>
 <text x="926" y="215" fill="#F3EADD" font-size="29" font-weight="700">发现感兴趣的景点</text><text x="926" y="251" fill="#AFA39A" font-size="22">筛选资料，查看地图与景点模型</text>
 <circle cx="881" cy="306" r="20" fill="#61362E"/><text x="881" y="313" text-anchor="middle" fill="#F3D5A9" font-size="19">02</text>
 <text x="926" y="310" fill="#F3EADD" font-size="29" font-weight="700">按天整理游玩计划</text><text x="926" y="346" fill="#AFA39A" font-size="22">安排日期、顺序、时间与备注</text>
 <circle cx="881" cy="401" r="20" fill="#61362E"/><text x="881" y="408" text-anchor="middle" fill="#F3D5A9" font-size="19">03</text>
 <text x="926" y="405" fill="#F3EADD" font-size="29" font-weight="700">邀请伙伴，一起探索</text><text x="926" y="441" fill="#AFA39A" font-size="22">共享进度，可选任务与萌宠成长</text>
 <svg x="875" y="477" width="112" height="126" viewBox="0 0 320 360"><defs><linearGradient id="banner-0-pet221-fur" x2=".25" y2="1"><stop stop-color="#BC926D"/><stop offset="1" stop-color="#966547"/></linearGradient><linearGradient id="banner-0-pet221-cream" x2="0" y2="1"><stop stop-color="#FFFDF4"/><stop offset="1" stop-color="#FFF3D9"/></linearGradient><linearGradient id="banner-0-pet221-cloth" x2=".8" y2="1"><stop stop-color="#548E77"/><stop offset="1" stop-color="#315F51"/></linearGradient></defs><ellipse cx="162" cy="318" rx="67" ry="10" fill="#736450" opacity=".1"/><g class="pet-figure"><g class="costume costume-back" data-slot="back"></g><g class="pet-foot-left"><ellipse cx="128" cy="298" rx="26" ry="17" fill="#966547" stroke="#654535" stroke-width="3"/><ellipse cx="128" cy="298" rx="14" ry="7" fill="#FFF3D9" opacity=".55"/></g><g class="pet-foot-right"><ellipse cx="193" cy="298" rx="26" ry="17" fill="#966547" stroke="#654535" stroke-width="3"/><ellipse cx="193" cy="298" rx="14" ry="7" fill="#FFF3D9" opacity=".55"/></g><ellipse cx="161" cy="250" rx="63" ry="61" fill="url(#banner-0-pet221-fur)" stroke="#654535" stroke-width="3.5"/><ellipse cx="160" cy="260" rx="42" ry="41" fill="url(#banner-0-pet221-cream)" /><g class="costume costume-outfit" data-slot="outfit"></g><g class="pet-arm-left" style="transform-box:view-box;transform-origin:99px 218px"><ellipse cx="88" cy="242" rx="18" ry="30" fill="#966547" stroke="#654535" stroke-width="3" transform="rotate(18 88 242)"/><ellipse cx="88" cy="254" rx="8" ry="7" fill="#D4A18D" opacity=".7"/><circle cx="81" cy="244" r="2" fill="#FFF3D9" /><circle cx="89" cy="241" r="2" fill="#FFF3D9" /><circle cx="96" cy="245" r="2" fill="#FFF3D9" /></g><g class="pet-head-motion" style="transform-box:view-box;transform-origin:160px 178px"><circle cx="91" cy="83" r="27" fill="url(#banner-0-pet221-fur)" stroke="#654535" stroke-width="3.5"/><circle cx="229" cy="83" r="27" fill="url(#banner-0-pet221-fur)" stroke="#654535" stroke-width="3.5"/><circle cx="91" cy="83" r="15" fill="#D9B39C" /><circle cx="229" cy="83" r="15" fill="#D9B39C" /><path d="M80 116 C78 70 119 62 160 65 C207 59 248 86 242 132 C252 182 215 204 162 204 C106 207 67 177 80 116Z" fill="url(#banner-0-pet221-cream)" stroke="#654535" stroke-width="3.5" stroke-linecap="round" stroke-linejoin="round" /><ellipse cx="125" cy="140" rx="20" ry="25" fill="#966547" transform="rotate(22 125 140)"/><ellipse cx="197" cy="140" rx="20" ry="25" fill="#966547" transform="rotate(-22 197 140)"/><ellipse cx="160" cy="173" rx="34" ry="23" fill="#FFF9EB" /><g class="pet-eyes"><ellipse cx="125" cy="151" rx="18" ry="7" fill="#DE988E" opacity=".23"/><ellipse cx="125" cy="139" rx="9.5" ry="12" fill="#654535" /><ellipse cx="126" cy="143" rx="5.5" ry="7" fill="#392F2A" /><circle cx="122" cy="134" r="3.7" fill="#FFFFFF" /><circle cx="129" cy="144" r="1.8" fill="#FFFFFF" /><ellipse cx="197" cy="151" rx="18" ry="7" fill="#DE988E" opacity=".23"/><ellipse cx="197" cy="139" rx="9.5" ry="12" fill="#654535" /><ellipse cx="198" cy="143" rx="5.5" ry="7" fill="#392F2A" /><circle cx="194" cy="134" r="3.7" fill="#FFFFFF" /><circle cx="201" cy="144" r="1.8" fill="#FFFFFF" /></g><path d="M114 119 Q122 114 130 117 M189 117 Q197 112 205 117" fill="none" stroke="#654535" stroke-width="3" stroke-linecap="round" stroke-linejoin="round" opacity=".6"/><path d="M152 162 Q160 157 168 162 Q169 168 161 171 Q153 169 152 162Z" fill="#654535" stroke="none" stroke-width="3" stroke-linecap="round" stroke-linejoin="round" /><path d="M161 170 V177 M161 177 Q150 187 144 176 M161 177 Q173 188 179 176" fill="none" stroke="#654535" stroke-width="3" stroke-linecap="round" stroke-linejoin="round" /><path d="M139 80 Q150 75 158 78 M165 77 Q174 73 181 77" fill="none" stroke="#FFFFFF" stroke-width="4" stroke-linecap="round" stroke-linejoin="round" opacity=".8"/><ellipse cx="106" cy="166" rx="12" ry="6" fill="#DF938B" opacity=".5"/><ellipse cx="218" cy="166" rx="12" ry="6" fill="#DF938B" opacity=".5"/><g class="costume costume-hat" data-slot="hat"></g></g><g class="pet-arm-right" style="transform-box:view-box;transform-origin:228px 218px"><ellipse cx="238" cy="242" rx="18" ry="30" fill="#966547" stroke="#654535" stroke-width="3" transform="rotate(-18 238 242)"/><ellipse cx="238" cy="254" rx="8" ry="7" fill="#D4A18D" opacity=".7"/><circle cx="231" cy="244" r="2" fill="#FFF3D9" /><circle cx="239" cy="241" r="2" fill="#FFF3D9" /><circle cx="246" cy="245" r="2" fill="#FFF3D9" /></g></g><g class="hand-animation-only"><g class="highfive-hand" transform="translate(261 181) rotate(-12)"><path d="M-10 12 L-20 -2 Q-24 -10 -17 -10 L-10 -3 V-20 Q-10 -27 -4 -25 L-3 -8 V-28 Q-1 -33 3 -28 L4 -8 V-23 Q8 -29 11 -22 L11 -6 L14 -15 Q21 -19 21 -10 L18 10 Q6 28 -10 12Z" fill="#F4CF71" stroke="#CF9F39" stroke-width="2" stroke-linecap="round" stroke-linejoin="round" /></g></g></svg><text x="931" y="631" text-anchor="middle" fill="#C7BCB1" font-size="21">七仔</text><svg x="1026" y="477" width="112" height="126" viewBox="0 0 320 360"><defs><linearGradient id="banner-1-pet222-fur" x2=".25" y2="1"><stop stop-color="#FFFFFF"/><stop offset="1" stop-color="#FFF8EF"/></linearGradient><linearGradient id="banner-1-pet222-cream" x2="0" y2="1"><stop stop-color="#FFFDF4"/><stop offset="1" stop-color="#FFEBDF"/></linearGradient><linearGradient id="banner-1-pet222-cloth" x2=".8" y2="1"><stop stop-color="#C87584"/><stop offset="1" stop-color="#A54E65"/></linearGradient></defs><ellipse cx="162" cy="318" rx="67" ry="10" fill="#736450" opacity=".1"/><g class="pet-figure"><g class="costume costume-back" data-slot="back"></g><g class="pet-foot-left"><ellipse cx="128" cy="298" rx="26" ry="17" fill="#F3D7D2" stroke="#98645E" stroke-width="3"/><ellipse cx="128" cy="298" rx="14" ry="7" fill="#FFEBDF" opacity=".55"/></g><g class="pet-foot-right"><ellipse cx="193" cy="298" rx="26" ry="17" fill="#F3D7D2" stroke="#98645E" stroke-width="3"/><ellipse cx="193" cy="298" rx="14" ry="7" fill="#FFEBDF" opacity=".55"/></g><ellipse cx="161" cy="250" rx="63" ry="57" fill="url(#banner-1-pet222-fur)" stroke="#98645E" stroke-width="3.5"/><ellipse cx="160" cy="260" rx="42" ry="41" fill="url(#banner-1-pet222-cream)" /><path d="M144 249 l8 7 l8 -7 l8 7 l9 -8" fill="none" stroke="#E8B9AF" stroke-width="2" stroke-linecap="round" stroke-linejoin="round" /><g class="costume costume-outfit" data-slot="outfit"></g><g class="pet-arm-left" style="transform-box:view-box;transform-origin:99px 218px"><path d="M100 215 Q71 210 67 244 Q68 265 85 275 Q83 260 95 263 Q94 246 108 239Z" fill="url(#banner-1-pet222-cream)" stroke="#98645E" stroke-width="3" stroke-linecap="round" stroke-linejoin="round" /><path d="M78 242 l5 17 M90 238 l3 15" fill="none" stroke="#DCB0AA" stroke-width="2" stroke-linecap="round" stroke-linejoin="round" /></g><g class="pet-head-motion" style="transform-box:view-box;transform-origin:160px 178px"><path d="M179 85 Q208 30 252 52 Q228 57 210 89 M177 87 Q186 40 214 28 Q224 48 198 87" fill="url(#banner-1-pet222-fur)" stroke="#98645E" stroke-width="2.7" stroke-linecap="round" stroke-linejoin="round" /><path d="M93 97 Q114 63 160 69 Q219 68 231 118 Q250 176 197 197 Q135 220 97 180 Q73 148 93 97Z" fill="url(#banner-1-pet222-fur)" stroke="#98645E" stroke-width="3.5" stroke-linecap="round" stroke-linejoin="round" /><path d="M103 125 Q124 109 141 127 L171 127 Q188 111 206 128 Q216 155 196 171 Q175 179 165 162 Q145 182 124 173 Q101 161 103 125Z" fill="#E39C91" stroke="none" stroke-width="3" stroke-linecap="round" stroke-linejoin="round" /><ellipse cx="151" cy="113" rx="36" ry="27" fill="#FFFFFF" opacity=".8"/><g class="pet-eyes"><ellipse cx="122" cy="151" rx="18" ry="7" fill="#DE988E" opacity=".23"/><ellipse cx="122" cy="139" rx="9.5" ry="12" fill="#98645E" /><ellipse cx="123" cy="143" rx="5.5" ry="7" fill="#392F2A" /><circle cx="119" cy="134" r="3.7" fill="#FFFFFF" /><circle cx="126" cy="144" r="1.8" fill="#FFFFFF" /><ellipse cx="181" cy="151" rx="18" ry="7" fill="#DE988E" opacity=".23"/><ellipse cx="181" cy="139" rx="9.5" ry="12" fill="#98645E" /><ellipse cx="182" cy="143" rx="5.5" ry="7" fill="#392F2A" /><circle cx="178" cy="134" r="3.7" fill="#FFFFFF" /><circle cx="185" cy="144" r="1.8" fill="#FFFFFF" /></g><path d="M114 119 Q122 114 130 117 M189 117 Q197 112 205 117" fill="none" stroke="#98645E" stroke-width="3" stroke-linecap="round" stroke-linejoin="round" opacity=".6"/><path d="M145 162 Q153 157 161 162 Q160 179 153 196 Q146 179 145 162Z" fill="#74615E" stroke="#98645E" stroke-width="2" stroke-linecap="round" stroke-linejoin="round" /><path d="M150 164 Q148 174 153 187" fill="none" stroke="#A09791" stroke-width="2" stroke-linecap="round" stroke-linejoin="round" /><path d="M103 167 Q112 185 130 188 M205 171 Q202 184 191 189" fill="none" stroke="#EACFC5" stroke-width="3" stroke-linecap="round" stroke-linejoin="round" /><ellipse cx="106" cy="166" rx="12" ry="6" fill="#DF938B" opacity=".5"/><ellipse cx="218" cy="166" rx="12" ry="6" fill="#DF938B" opacity=".5"/><g class="costume costume-hat" data-slot="hat"></g></g><g class="pet-arm-right" style="transform-box:view-box;transform-origin:228px 218px"><path d="M224 214 Q255 209 258 244 Q256 265 239 275 Q242 260 230 263 Q227 246 216 239Z" fill="url(#banner-1-pet222-cream)" stroke="#98645E" stroke-width="3" stroke-linecap="round" stroke-linejoin="round" /><path d="M247 242 l-5 17 M235 238 l-3 15" fill="none" stroke="#DCB0AA" stroke-width="2" stroke-linecap="round" stroke-linejoin="round" /></g></g><g class="hand-animation-only"><g class="highfive-hand" transform="translate(261 181) rotate(-12)"><path d="M-10 12 L-20 -2 Q-24 -10 -17 -10 L-10 -3 V-20 Q-10 -27 -4 -25 L-3 -8 V-28 Q-1 -33 3 -28 L4 -8 V-23 Q8 -29 11 -22 L11 -6 L14 -15 Q21 -19 21 -10 L18 10 Q6 28 -10 12Z" fill="#F4CF71" stroke="#CF9F39" stroke-width="2" stroke-linecap="round" stroke-linejoin="round" /></g></g></svg><text x="1082" y="631" text-anchor="middle" fill="#C7BCB1" font-size="21">朱鹮</text><svg x="1177" y="477" width="112" height="126" viewBox="0 0 320 360"><defs><linearGradient id="banner-2-pet223-fur" x2=".25" y2="1"><stop stop-color="#F2CA78"/><stop offset="1" stop-color="#D69748"/></linearGradient><linearGradient id="banner-2-pet223-cream" x2="0" y2="1"><stop stop-color="#FFFDF4"/><stop offset="1" stop-color="#FFE3A0"/></linearGradient><linearGradient id="banner-2-pet223-cloth" x2=".8" y2="1"><stop stop-color="#DA8662"/><stop offset="1" stop-color="#AA583F"/></linearGradient></defs><ellipse cx="162" cy="318" rx="67" ry="10" fill="#736450" opacity=".1"/><g class="pet-figure"><path d="M207 267 Q283 282 278 228 Q275 207 254 218 Q243 234 261 239" fill="none" stroke="#835C38" stroke-width="15" stroke-linecap="round" stroke-linejoin="round" /><path d="M207 267 Q283 282 278 228 Q275 207 254 218 Q243 234 261 239" fill="none" stroke="#F2CA78" stroke-width="9" stroke-linecap="round" stroke-linejoin="round" /><g class="costume costume-back" data-slot="back"></g><g class="pet-foot-left"><ellipse cx="128" cy="298" rx="26" ry="17" fill="#D69748" stroke="#835C38" stroke-width="3"/><ellipse cx="128" cy="298" rx="14" ry="7" fill="#FFE3A0" opacity=".55"/></g><g class="pet-foot-right"><ellipse cx="193" cy="298" rx="26" ry="17" fill="#D69748" stroke="#835C38" stroke-width="3"/><ellipse cx="193" cy="298" rx="14" ry="7" fill="#FFE3A0" opacity=".55"/></g><ellipse cx="161" cy="250" rx="63" ry="61" fill="url(#banner-2-pet223-fur)" stroke="#835C38" stroke-width="3.5"/><ellipse cx="160" cy="260" rx="42" ry="41" fill="url(#banner-2-pet223-cream)" /><g class="costume costume-outfit" data-slot="outfit"></g><g class="pet-arm-left" style="transform-box:view-box;transform-origin:99px 218px"><ellipse cx="88" cy="242" rx="18" ry="30" fill="#D69748" stroke="#835C38" stroke-width="3" transform="rotate(18 88 242)"/><ellipse cx="88" cy="254" rx="8" ry="7" fill="#FFE3A0" opacity=".7"/><circle cx="81" cy="244" r="2" fill="#FFE3A0" /><circle cx="89" cy="241" r="2" fill="#FFE3A0" /><circle cx="96" cy="245" r="2" fill="#FFE3A0" /></g><g class="pet-head-motion" style="transform-box:view-box;transform-origin:160px 178px"><ellipse cx="80" cy="132" rx="29" ry="33" fill="url(#banner-2-pet223-fur)" stroke="#835C38" stroke-width="3"/><ellipse cx="241" cy="132" rx="29" ry="33" fill="url(#banner-2-pet223-fur)" stroke="#835C38" stroke-width="3"/><ellipse cx="80" cy="132" rx="17" ry="20" fill="#F5C5A2" /><ellipse cx="241" cy="132" rx="17" ry="20" fill="#F5C5A2" /><path d="M86 125 Q79 92 113 72 Q120 53 138 61 Q142 41 161 55 Q173 43 190 61 Q231 65 239 111 Q254 165 220 191 Q190 211 158 205 Q113 210 91 177 Q74 153 86 125Z" fill="url(#banner-2-pet223-fur)" stroke="#835C38" stroke-width="3.5" stroke-linecap="round" stroke-linejoin="round" /><path d="M109 115 Q122 92 146 114 Q159 122 175 112 Q198 89 216 113 Q233 147 211 177 Q188 199 160 194 Q121 204 103 171 Q90 138 109 115Z" fill="#AFC9D0" stroke="#835C38" stroke-width="2.3" stroke-linecap="round" stroke-linejoin="round" /><ellipse cx="160" cy="174" rx="32" ry="23" fill="url(#banner-2-pet223-cream)" /><g class="pet-eyes"><ellipse cx="125" cy="151" rx="18" ry="7" fill="#DE988E" opacity=".23"/><ellipse cx="125" cy="139" rx="9.5" ry="12" fill="#835C38" /><ellipse cx="126" cy="143" rx="5.5" ry="7" fill="#392F2A" /><circle cx="122" cy="134" r="3.7" fill="#FFFFFF" /><circle cx="129" cy="144" r="1.8" fill="#FFFFFF" /><ellipse cx="197" cy="151" rx="18" ry="7" fill="#DE988E" opacity=".23"/><ellipse cx="197" cy="139" rx="9.5" ry="12" fill="#835C38" /><ellipse cx="198" cy="143" rx="5.5" ry="7" fill="#392F2A" /><circle cx="194" cy="134" r="3.7" fill="#FFFFFF" /><circle cx="201" cy="144" r="1.8" fill="#FFFFFF" /></g><path d="M114 119 Q122 114 130 117 M189 117 Q197 112 205 117" fill="none" stroke="#835C38" stroke-width="3" stroke-linecap="round" stroke-linejoin="round" opacity=".6"/><ellipse cx="161" cy="162" rx="6" ry="4" fill="#66828B" /><path d="M150 178 Q161 190 177 177" fill="none" stroke="#835C38" stroke-width="3.4" stroke-linecap="round" stroke-linejoin="round" /><path d="M151 73 Q161 62 170 68" fill="none" stroke="#FFE3A0" stroke-width="4" stroke-linecap="round" stroke-linejoin="round" /><ellipse cx="106" cy="166" rx="12" ry="6" fill="#DF938B" opacity=".5"/><ellipse cx="218" cy="166" rx="12" ry="6" fill="#DF938B" opacity=".5"/><g class="costume costume-hat" data-slot="hat"></g></g><g class="pet-arm-right" style="transform-box:view-box;transform-origin:228px 218px"><ellipse cx="238" cy="242" rx="18" ry="30" fill="#D69748" stroke="#835C38" stroke-width="3" transform="rotate(-18 238 242)"/><ellipse cx="238" cy="254" rx="8" ry="7" fill="#FFE3A0" opacity=".7"/><circle cx="231" cy="244" r="2" fill="#FFE3A0" /><circle cx="239" cy="241" r="2" fill="#FFE3A0" /><circle cx="246" cy="245" r="2" fill="#FFE3A0" /></g></g><g class="hand-animation-only"><g class="highfive-hand" transform="translate(261 181) rotate(-12)"><path d="M-10 12 L-20 -2 Q-24 -10 -17 -10 L-10 -3 V-20 Q-10 -27 -4 -25 L-3 -8 V-28 Q-1 -33 3 -28 L4 -8 V-23 Q8 -29 11 -22 L11 -6 L14 -15 Q21 -19 21 -10 L18 10 Q6 28 -10 12Z" fill="#F4CF71" stroke="#CF9F39" stroke-width="2" stroke-linecap="round" stroke-linejoin="round" /></g></g></svg><text x="1233" y="631" text-anchor="middle" fill="#C7BCB1" font-size="21">川金丝猴</text><svg x="1328" y="477" width="112" height="126" viewBox="0 0 320 360"><defs><linearGradient id="banner-3-pet224-fur" x2=".25" y2="1"><stop stop-color="#DAC8A4"/><stop offset="1" stop-color="#B6A17C"/></linearGradient><linearGradient id="banner-3-pet224-cream" x2="0" y2="1"><stop stop-color="#FFFDF4"/><stop offset="1" stop-color="#F8EBD0"/></linearGradient><linearGradient id="banner-3-pet224-cloth" x2=".8" y2="1"><stop stop-color="#6E9993"/><stop offset="1" stop-color="#436D69"/></linearGradient></defs><ellipse cx="162" cy="318" rx="67" ry="10" fill="#736450" opacity=".1"/><g class="pet-figure"><g class="costume costume-back" data-slot="back"></g><g class="pet-foot-left"><ellipse cx="128" cy="298" rx="26" ry="17" fill="#8F7A5E" stroke="#71604C" stroke-width="3"/><path d="M128 296 v13" fill="none" stroke="#71604C" stroke-width="3" stroke-linecap="round" stroke-linejoin="round" /></g><g class="pet-foot-right"><ellipse cx="193" cy="298" rx="26" ry="17" fill="#8F7A5E" stroke="#71604C" stroke-width="3"/><path d="M193 296 v13" fill="none" stroke="#71604C" stroke-width="3" stroke-linecap="round" stroke-linejoin="round" /></g><ellipse cx="161" cy="250" rx="69" ry="61" fill="url(#banner-3-pet224-fur)" stroke="#71604C" stroke-width="3.5"/><ellipse cx="160" cy="260" rx="42" ry="41" fill="url(#banner-3-pet224-cream)" /><g class="costume costume-outfit" data-slot="outfit"></g><g class="pet-arm-left" style="transform-box:view-box;transform-origin:99px 218px"><ellipse cx="88" cy="242" rx="18" ry="30" fill="#8F7A5E" stroke="#71604C" stroke-width="3" transform="rotate(18 88 242)"/><path d="M82 260 q6 4 12 0" fill="none" stroke="#71604C" stroke-width="2" stroke-linecap="round" stroke-linejoin="round" /></g><g class="pet-head-motion" style="transform-box:view-box;transform-origin:160px 178px"><path d="M113 92 Q68 94 65 55 Q64 36 78 34 Q82 60 118 65Z" fill="#B5A18A" stroke="#71604C" stroke-width="3.5" stroke-linecap="round" stroke-linejoin="round" /><path d="M204 89 Q253 93 256 52 Q257 37 243 34 Q239 60 205 66Z" fill="#B5A18A" stroke="#71604C" stroke-width="3.5" stroke-linecap="round" stroke-linejoin="round" /><path d="M73 50 Q80 65 91 67 M83 71 L91 58 M235 57 L246 67" fill="none" stroke="#D9C9B3" stroke-width="3" stroke-linecap="round" stroke-linejoin="round" /><ellipse cx="81" cy="125" rx="27" ry="17" fill="url(#banner-3-pet224-fur)" transform="rotate(-25 81 125)" stroke="#71604C" stroke-width="3"/><ellipse cx="239" cy="125" rx="27" ry="17" fill="url(#banner-3-pet224-fur)" transform="rotate(25 239 125)" stroke="#71604C" stroke-width="3"/><ellipse cx="82" cy="125" rx="16" ry="8" fill="#D8AC99" /><ellipse cx="238" cy="125" rx="16" ry="8" fill="#D8AC99" /><path d="M90 115 Q91 71 128 76 Q138 57 154 75 Q174 52 188 75 Q223 66 233 105 L241 153 Q245 199 165 207 Q86 211 80 170Z" fill="url(#banner-3-pet224-fur)" stroke="#71604C" stroke-width="3.5" stroke-linecap="round" stroke-linejoin="round" /><path d="M112 95 Q131 80 144 94 Q156 82 167 94 Q184 80 200 97" fill="none" stroke="#F6E7C8" stroke-width="8" stroke-linecap="round" stroke-linejoin="round" /><ellipse cx="161" cy="173" rx="48" ry="29" fill="url(#banner-3-pet224-cream)" stroke="#71604C" stroke-width="2.7"/><g class="pet-eyes"><ellipse cx="125" cy="149" rx="18" ry="7" fill="#DE988E" opacity=".23"/><ellipse cx="125" cy="137" rx="9.5" ry="12" fill="#71604C" /><ellipse cx="126" cy="141" rx="5.5" ry="7" fill="#392F2A" /><circle cx="122" cy="132" r="3.7" fill="#FFFFFF" /><circle cx="129" cy="142" r="1.8" fill="#FFFFFF" /><ellipse cx="197" cy="149" rx="18" ry="7" fill="#DE988E" opacity=".23"/><ellipse cx="197" cy="137" rx="9.5" ry="12" fill="#71604C" /><ellipse cx="198" cy="141" rx="5.5" ry="7" fill="#392F2A" /><circle cx="194" cy="132" r="3.7" fill="#FFFFFF" /><circle cx="201" cy="142" r="1.8" fill="#FFFFFF" /></g><path d="M114 119 Q122 114 130 117 M189 117 Q197 112 205 117" fill="none" stroke="#71604C" stroke-width="3" stroke-linecap="round" stroke-linejoin="round" opacity=".6"/><ellipse cx="145" cy="167" rx="5" ry="4" fill="#71604C" /><ellipse cx="178" cy="167" rx="5" ry="4" fill="#71604C" /><path d="M147 185 Q161 194 177 184" fill="none" stroke="#71604C" stroke-width="3.4" stroke-linecap="round" stroke-linejoin="round" /><ellipse cx="106" cy="166" rx="12" ry="6" fill="#DF938B" opacity=".5"/><ellipse cx="218" cy="166" rx="12" ry="6" fill="#DF938B" opacity=".5"/><g class="costume costume-hat" data-slot="hat"></g></g><g class="pet-arm-right" style="transform-box:view-box;transform-origin:228px 218px"><ellipse cx="238" cy="242" rx="18" ry="30" fill="#8F7A5E" stroke="#71604C" stroke-width="3" transform="rotate(-18 238 242)"/><path d="M232 260 q6 4 12 0" fill="none" stroke="#71604C" stroke-width="2" stroke-linecap="round" stroke-linejoin="round" /></g></g><g class="hand-animation-only"><g class="highfive-hand" transform="translate(261 181) rotate(-12)"><path d="M-10 12 L-20 -2 Q-24 -10 -17 -10 L-10 -3 V-20 Q-10 -27 -4 -25 L-3 -8 V-28 Q-1 -33 3 -28 L4 -8 V-23 Q8 -29 11 -22 L11 -6 L14 -15 Q21 -19 21 -10 L18 10 Q6 28 -10 12Z" fill="#F4CF71" stroke="#CF9F39" stroke-width="2" stroke-linecap="round" stroke-linejoin="round" /></g></g></svg><text x="1384" y="631" text-anchor="middle" fill="#C7BCB1" font-size="21">羚牛</text>
</g></svg>